<?xml version="1.0" encoding="UTF-8" standalone="no"?>
<!DOCTYPE svg PUBLIC "-//W3C//DTD SVG 1.1//EN" "http://www.w3.org/Graphics/SVG/1.1/DTD/svg11.dtd">
<svg width="100%" height="100%" viewBox="0 0 54 54" version="1.1" xmlns="http://www.w3.org/2000/svg" xmlns:xlink="http://www.w3.org/1999/xlink" xml:space="preserve" xmlns:serif="http://www.serif.com/" style="fill-rule:evenodd;clip-rule:evenodd;stroke-linecap:round;stroke-linejoin:round;stroke-miterlimit:10;">
    <g id="Artboard1" transform="matrix(0.922214,0,0,0.981786,-18.88,-21.686)">
        <rect x="20.472" y="22.088" width="59.055" height="55.823" style="fill:none;"/>
        <g id="color" transform="matrix(1.08435,0,0,1.01855,12.3208,11.456)">
            <path d="M24.488,52.117C23.944,54.808 24.048,57.111 24.793,58.777C26.847,63.378 32.258,65.454 36.862,63.398C39.091,62.402 40.8,60.599 41.672,58.319C42.545,56.04 42.478,53.556 41.483,51.327C40.385,48.868 39.012,46.974 36.416,46.224C36.107,46.135 36.377,45.093 36.5,44.797L37.34,41.984L29.741,39.454C26.319,47.183 24.636,51.377 24.488,52.117ZM34.52,50.112C35.746,50.391 36.789,51.131 37.458,52.195C38.127,53.259 38.34,54.521 38.06,55.746C37.781,56.972 37.041,58.015 35.977,58.684C35.217,59.16 34.357,59.406 33.483,59.406C33.131,59.406 32.777,59.366 32.426,59.286C31.2,59.006 30.157,58.267 29.488,57.202C28.82,56.138 28.606,54.877 28.886,53.652C29.166,52.426 29.905,51.383 30.97,50.714C32.035,50.045 33.3,49.833 34.52,50.112Z" style="fill:rgb(234,90,71);fill-rule:nonzero;"/>
            <path d="M37.009,42.077L49.142,12.033C46.955,12.728 44.587,13.273 42.642,15.246C40.199,17.726 38.417,21.638 38.417,21.638C38.417,21.638 30.833,38.16 30.465,38.982C30.451,39.012 37.009,42.077 37.009,42.077Z" style="fill:rgb(208,207,206);fill-rule:nonzero;"/>
            <path d="M61.011,24.5C61.011,24.5 45.72,29.68 46.199,29.452C46.198,29.451 46.196,29.447 46.195,29.447L42.249,31.095L37.113,44.061L42.822,41.317L42.823,41.302C42.721,41.336 52.238,35.661 52.412,35.571C56.436,33.493 59.439,29.427 61.011,24.5Z" style="fill:rgb(155,155,154);fill-rule:nonzero;"/>
            <path d="M21.833,32.884C17.751,31.062 11.433,33.091 9.611,37.172C7.788,41.255 9.432,47.603 13.514,49.426C14.992,50.086 17.456,50.482 19.844,49.999C19.947,49.979 23.211,49.772 22.822,50.025L25.107,48.962C26.285,45.99 29.823,37.62 30.113,36.974L27.375,38.287L27.369,38.299C27.351,38.583 23.891,33.804 21.833,32.884ZM21.584,43.235C20.938,44.262 19.931,44.977 18.747,45.247C18.408,45.325 18.069,45.362 17.735,45.362C15.662,45.362 13.785,43.932 13.306,41.828C13.035,40.645 13.242,39.427 13.887,38.399C14.533,37.371 15.541,36.657 16.724,36.387C17.906,36.116 19.125,36.323 20.154,36.968C21.181,37.614 21.896,38.622 22.166,39.805C22.436,40.989 22.23,42.207 21.584,43.235Z" style="fill:rgb(210,47,39);fill-rule:nonzero;"/>
        </g>
        <g id="line" transform="matrix(1.08435,0,0,1.01855,12.3208,11.456)">
            <path d="M29.584,39.621C32.642,32.741 36.236,24.978 37.383,22.756C39.455,18.744 43.117,12.566 49.925,11.562L37.264,42.116" style="fill:none;fill-rule:nonzero;stroke:black;stroke-width:2px;"/>
            <path d="M41.462,50.976C40.324,48.426 38.158,46.661 35.671,45.942L37.264,42.116L29.583,39.621C27.078,45.261 24.704,50.837 24.492,51.886C24.13,53.673 23.875,56.26 24.83,58.399C26.88,62.992 32.265,65.054 36.858,63.004C41.451,60.954 43.512,55.569 41.462,50.976ZM37.912,55.712C37.353,58.164 34.911,59.698 32.46,59.138C30.008,58.578 28.474,56.137 29.034,53.685C29.594,51.234 32.035,49.7 34.487,50.259C36.938,50.819 38.472,53.26 37.912,55.712Z" style="fill:none;fill-rule:nonzero;stroke:black;stroke-width:2px;"/>
            <path d="M26.373,38.237C25.589,35.912 23.876,33.907 21.458,32.828C16.865,30.778 11.48,32.839 9.43,37.432C7.38,42.025 9.442,47.41 14.035,49.46C16.174,50.415 18.761,50.159 20.548,49.798C20.841,49.739 21.446,49.529 22.29,49.201M18.749,45.256C16.297,45.816 13.856,44.282 13.296,41.83C12.737,39.378 14.27,36.937 16.722,36.378C19.174,35.818 21.615,37.352 22.175,39.803C22.734,42.255 21.201,44.696 18.749,45.256Z" style="fill:none;fill-rule:nonzero;stroke:black;stroke-width:2px;"/>
            <path d="M46.625,30.347L60.872,24.365C59.868,31.173 53.69,34.835 49.678,36.907C48.366,37.584 46.367,38.6 42.513,40.37" style="fill:none;fill-rule:nonzero;stroke:black;stroke-width:2px;"/>
        </g>
    </g>
</svg>
